<svg xmlns="http://www.w3.org/2000/svg" xmlns:xlink="http://www.w3.org/1999/xlink" width="500" zoomAndPan="magnify" viewBox="0 0 375 374.999991" height="500" preserveAspectRatio="xMidYMid meet" version="1.0"><defs><clipPath id="597f2ac114"><path d="M 9 36.253906 L 366 36.253906 L 366 351.5625 L 9 351.5625 Z M 9 36.253906 " clip-rule="nonzero"/></clipPath><clipPath id="f72ba1236b"><path d="M 198.664062 42.972656 L 363.835938 332.027344 C 366.144531 336.066406 366.128906 341.035156 363.792969 345.058594 C 361.457031 349.085938 357.15625 351.5625 352.5 351.5625 L 22.5 351.5625 C 17.84375 351.5625 13.542969 349.085938 11.207031 345.058594 C 8.871094 341.035156 8.855469 336.066406 11.164062 332.027344 L 176.335938 42.972656 C 178.625 38.96875 182.886719 36.496094 187.5 36.496094 C 192.113281 36.496094 196.375 38.96875 198.664062 42.972656 Z M 198.664062 42.972656 " clip-rule="nonzero"/></clipPath></defs><g clip-path="url(#597f2ac114)"><g clip-path="url(#f72ba1236b)"><path fill="#ffa800" d="M 0 23.4375 L 375.550781 23.4375 L 375.550781 351.5625 L 0 351.5625 Z M 0 23.4375 " fill-opacity="1" fill-rule="nonzero"/></g></g></svg>