<svg xmlns="http://www.w3.org/2000/svg" xmlns:xlink="http://www.w3.org/1999/xlink" width="450" zoomAndPan="magnify" viewBox="0 0 337.5 337.500003" height="450" preserveAspectRatio="xMidYMid meet" version="1.2"><g id="d575ddf80d"><path style=" stroke:none;fill-rule:nonzero;fill:#8c52ff;fill-opacity:1;" d="M 159.46875 16 C 163.027344 8.289062 173.984375 8.289062 177.542969 16 L 219 105.867188 C 220.453125 109.011719 223.429688 111.175781 226.867188 111.582031 L 325.164062 123.234375 C 333.597656 124.234375 336.980469 134.65625 330.746094 140.421875 L 258.074219 207.617188 C 255.535156 209.964844 254.394531 213.46875 255.070312 216.863281 L 274.363281 313.933594 C 276.015625 322.261719 267.148438 328.703125 259.738281 324.554688 L 173.367188 276.214844 C 170.347656 274.523438 166.664062 274.523438 163.644531 276.214844 L 77.273438 324.554688 C 69.863281 328.703125 60.996094 322.261719 62.648438 313.933594 L 81.941406 216.863281 C 82.617188 213.46875 81.476562 209.964844 78.9375 207.617188 L 6.265625 140.421875 C 0.03125 134.65625 3.417969 124.234375 11.847656 123.234375 L 110.144531 111.582031 C 113.582031 111.175781 116.558594 109.011719 118.011719 105.867188 Z M 159.46875 16 "/></g></svg>