<svg xmlns="http://www.w3.org/2000/svg" xmlns:xlink="http://www.w3.org/1999/xlink" width="800" zoomAndPan="magnify" viewBox="0 0 600 225" height="300" preserveAspectRatio="xMidYMid meet" version="1.0"><defs><g/><clipPath id="52b8887c68"><path d="M 18 132.855469 L 72.925781 132.855469 L 72.925781 182 L 18 182 Z M 18 132.855469 " clip-rule="nonzero"/></clipPath></defs><g fill="#000000" fill-opacity="1"><g transform="translate(44.998829, 147.268974)"><g><path d="M 43.609375 -57.6875 L 43.609375 -71.765625 C 50.234375 -71.578125 56.210938 -69.78125 61.546875 -66.375 C 66.878906 -62.96875 71.109375 -58.523438 74.234375 -53.046875 C 77.367188 -47.578125 78.9375 -41.578125 78.9375 -35.046875 C 78.9375 -28.609375 77.367188 -22.648438 74.234375 -17.171875 C 71.109375 -11.703125 66.898438 -7.285156 61.609375 -3.921875 C 56.328125 -0.566406 50.328125 1.242188 43.609375 1.515625 L 43.609375 -12.28125 C 47.285156 -12.5625 50.617188 -13.734375 53.609375 -15.796875 C 56.597656 -17.867188 58.96875 -20.582031 60.71875 -23.9375 C 62.46875 -27.300781 63.34375 -31.003906 63.34375 -35.046875 C 63.34375 -39.191406 62.46875 -42.921875 60.71875 -46.234375 C 58.96875 -49.546875 56.597656 -52.234375 53.609375 -54.296875 C 50.617188 -56.367188 47.285156 -57.5 43.609375 -57.6875 Z M 41.265625 -12.28125 L 41.265625 1.515625 C 34.734375 1.242188 28.796875 -0.546875 23.453125 -3.859375 C 18.117188 -7.171875 13.863281 -11.5625 10.6875 -17.03125 C 7.519531 -22.507812 5.9375 -28.515625 5.9375 -35.046875 C 5.9375 -41.671875 7.519531 -47.71875 10.6875 -53.1875 C 13.863281 -58.664062 18.117188 -63.082031 23.453125 -66.4375 C 28.796875 -69.800781 34.734375 -71.578125 41.265625 -71.765625 L 41.265625 -57.6875 C 37.765625 -57.5 34.519531 -56.414062 31.53125 -54.4375 C 28.539062 -52.457031 26.125 -49.8125 24.28125 -46.5 C 22.445312 -43.1875 21.53125 -39.367188 21.53125 -35.046875 C 21.53125 -31.003906 22.425781 -27.300781 24.21875 -23.9375 C 26.007812 -20.582031 28.398438 -17.867188 31.390625 -15.796875 C 34.378906 -13.734375 37.671875 -12.5625 41.265625 -12.28125 Z M 41.265625 -12.28125 "/></g></g></g><g fill="#000000" fill-opacity="1"><g transform="translate(129.862249, 147.268974)"><g><path d="M 81.96875 -35.046875 C 81.96875 -28.515625 80.609375 -22.46875 77.890625 -16.90625 C 75.179688 -11.34375 71.4375 -6.878906 66.65625 -3.515625 C 61.875 -0.160156 56.351562 1.515625 50.09375 1.515625 C 46.039062 1.515625 42.175781 0.78125 38.5 -0.6875 C 34.820312 -2.15625 31.785156 -4.085938 29.390625 -6.484375 L 29.390625 -23.734375 C 31.503906 -19.503906 34.191406 -16.535156 37.453125 -14.828125 C 40.722656 -13.128906 43.785156 -12.28125 46.640625 -12.28125 C 50.503906 -12.28125 53.90625 -13.289062 56.84375 -15.3125 C 59.789062 -17.34375 62.09375 -20.082031 63.75 -23.53125 C 65.40625 -26.976562 66.234375 -30.816406 66.234375 -35.046875 C 66.234375 -39.191406 65.40625 -42.988281 63.75 -46.4375 C 62.09375 -49.882812 59.789062 -52.617188 56.84375 -54.640625 C 53.90625 -56.671875 50.503906 -57.6875 46.640625 -57.6875 C 43.148438 -57.6875 39.882812 -56.71875 36.84375 -54.78125 C 33.8125 -52.851562 31.328125 -50.003906 29.390625 -46.234375 L 29.390625 -62.515625 C 31.691406 -65.179688 34.679688 -67.390625 38.359375 -69.140625 C 42.046875 -70.890625 45.957031 -71.765625 50.09375 -71.765625 C 56.351562 -71.765625 61.875 -70.109375 66.65625 -66.796875 C 71.4375 -63.484375 75.179688 -59.039062 77.890625 -53.46875 C 80.609375 -47.90625 81.96875 -41.765625 81.96875 -35.046875 Z M 11.3125 -2.890625 L 11.3125 -98.953125 C 11.3125 -100.054688 11.519531 -100.8125 11.9375 -101.21875 C 12.351562 -101.632812 13.113281 -101.84375 14.21875 -101.84375 L 24.15625 -101.84375 C 25.257812 -101.84375 26.015625 -101.632812 26.421875 -101.21875 C 26.835938 -100.8125 27.046875 -100.054688 27.046875 -98.953125 L 27.046875 -6.078125 L 24.28125 -2.34375 C 23.457031 -1.519531 22.582031 -0.921875 21.65625 -0.546875 C 20.738281 -0.179688 19.867188 0 19.046875 0 L 14.21875 0 C 13.113281 0 12.351562 -0.203125 11.9375 -0.609375 C 11.519531 -1.023438 11.3125 -1.785156 11.3125 -2.890625 Z M 11.3125 -2.890625 "/></g></g></g><g fill="#000000" fill-opacity="1"><g transform="translate(217.761449, 147.268974)"><g><path d="M 6.625 -49.40625 C 6.625 -55.84375 9.082031 -61.175781 14 -65.40625 C 18.925781 -69.644531 25.710938 -71.765625 34.359375 -71.765625 L 35.875 -71.765625 L 35.875 -59.484375 C 33.757812 -59.484375 31.597656 -59.273438 29.390625 -58.859375 C 27.179688 -58.441406 25.316406 -57.566406 23.796875 -56.234375 C 22.285156 -54.898438 21.53125 -52.898438 21.53125 -50.234375 C 21.53125 -47.566406 22.953125 -45.703125 25.796875 -44.640625 C 28.648438 -43.585938 32.75 -42.691406 38.09375 -41.953125 C 42.875 -41.398438 47.3125 -40.410156 51.40625 -38.984375 C 55.5 -37.554688 58.785156 -35.414062 61.265625 -32.5625 C 63.753906 -29.71875 65 -25.851562 65 -20.96875 C 65 -14.4375 62.375 -9.03125 57.125 -4.75 C 51.882812 -0.476562 44.753906 1.609375 35.734375 1.515625 L 35.734375 -10.765625 C 40.617188 -10.859375 44.234375 -11.800781 46.578125 -13.59375 C 48.921875 -15.382812 50.09375 -17.566406 50.09375 -20.140625 C 50.09375 -22.441406 48.644531 -24.210938 45.75 -25.453125 C 42.851562 -26.703125 38.78125 -27.648438 33.53125 -28.296875 C 28.75 -28.929688 24.3125 -29.960938 20.21875 -31.390625 C 16.125 -32.816406 12.832031 -34.957031 10.34375 -37.8125 C 7.863281 -40.664062 6.625 -44.53125 6.625 -49.40625 Z M 7.3125 -7.3125 C 6.394531 -8.050781 5.9375 -8.695312 5.9375 -9.25 C 5.9375 -9.800781 6.164062 -10.535156 6.625 -11.453125 L 9.65625 -16.703125 C 10.03125 -17.335938 10.351562 -17.835938 10.625 -18.203125 C 10.90625 -18.578125 11.273438 -18.765625 11.734375 -18.765625 C 12.097656 -18.765625 12.695312 -18.488281 13.53125 -17.9375 C 15.820312 -16.28125 18.71875 -14.71875 22.21875 -13.25 C 25.71875 -11.78125 29.441406 -10.953125 33.390625 -10.765625 L 33.390625 1.375 C 29.617188 1.195312 25.410156 0.421875 20.765625 -0.953125 C 16.117188 -2.335938 11.632812 -4.457031 7.3125 -7.3125 Z M 55.0625 -53.265625 C 52.488281 -54.828125 49.84375 -56.207031 47.125 -57.40625 C 44.414062 -58.601562 41.492188 -59.25 38.359375 -59.34375 L 38.359375 -71.484375 C 41.671875 -71.296875 45.234375 -70.601562 49.046875 -69.40625 C 52.867188 -68.21875 56.898438 -66.425781 61.140625 -64.03125 C 62.242188 -63.382812 62.769531 -62.757812 62.71875 -62.15625 C 62.675781 -61.5625 62.425781 -60.757812 61.96875 -59.75 L 58.921875 -54.640625 C 58.191406 -53.265625 57.503906 -52.578125 56.859375 -52.578125 C 56.398438 -52.578125 55.800781 -52.804688 55.0625 -53.265625 Z M 55.0625 -53.265625 "/></g></g></g><g fill="#000000" fill-opacity="1"><g transform="translate(288.273991, 147.268974)"><g><path d="M 66.515625 -16.96875 L 70.515625 -12 C 71.253906 -11.175781 71.664062 -10.507812 71.75 -10 C 71.84375 -9.5 71.570312 -8.878906 70.9375 -8.140625 C 67.71875 -5.015625 63.53125 -2.625 58.375 -0.96875 C 53.21875 0.6875 48.066406 1.515625 42.921875 1.515625 C 36.015625 1.515625 29.753906 -0.140625 24.140625 -3.453125 C 18.535156 -6.765625 14.097656 -11.179688 10.828125 -16.703125 C 7.566406 -22.222656 5.9375 -28.335938 5.9375 -35.046875 C 5.9375 -41.492188 7.476562 -47.453125 10.5625 -52.921875 C 13.644531 -58.398438 17.804688 -62.863281 23.046875 -66.3125 C 28.285156 -69.757812 34.171875 -71.578125 40.703125 -71.765625 L 40.703125 -58.78125 C 35.191406 -58.414062 30.707031 -56.070312 27.25 -51.75 C 23.800781 -47.425781 22.078125 -42 22.078125 -35.46875 L 22.078125 -34.5 C 22.078125 -30.269531 23.019531 -26.453125 24.90625 -23.046875 C 26.789062 -19.640625 29.34375 -16.945312 32.5625 -14.96875 C 35.78125 -12.988281 39.367188 -12 43.328125 -12 C 45.816406 -12 48.691406 -12.367188 51.953125 -13.109375 C 55.222656 -13.847656 58.648438 -15.226562 62.234375 -17.25 C 62.785156 -17.519531 63.242188 -17.75 63.609375 -17.9375 C 63.984375 -18.125 64.351562 -18.21875 64.71875 -18.21875 C 65.269531 -18.21875 65.867188 -17.800781 66.515625 -16.96875 Z M 76.59375 -32.984375 C 76.59375 -31.878906 76.429688 -31.097656 76.109375 -30.640625 C 75.785156 -30.179688 75.023438 -29.953125 73.828125 -29.953125 L 24.984375 -29.953125 C 24.242188 -33.441406 24.242188 -36.890625 24.984375 -40.296875 L 60.578125 -40.296875 C 60.304688 -43.054688 59.476562 -45.816406 58.09375 -48.578125 C 56.71875 -51.335938 54.8125 -53.679688 52.375 -55.609375 C 49.9375 -57.546875 46.832031 -58.601562 43.0625 -58.78125 L 43.0625 -71.765625 C 50.507812 -71.578125 56.71875 -69.664062 61.6875 -66.03125 C 66.65625 -62.394531 70.378906 -57.65625 72.859375 -51.8125 C 75.347656 -45.976562 76.59375 -39.703125 76.59375 -32.984375 Z M 76.59375 -32.984375 "/></g></g></g><g fill="#000000" fill-opacity="1"><g transform="translate(369.963667, 147.268974)"><g><path d="M 27.734375 -65.96875 L 27.734375 -2.890625 C 27.640625 -1.785156 27.410156 -1.023438 27.046875 -0.609375 C 26.679688 -0.203125 25.945312 0 24.84375 0 L 14.90625 0 C 13.800781 0 13.039062 -0.203125 12.625 -0.609375 C 12.207031 -1.023438 12 -1.785156 12 -2.890625 L 12 -67.34375 C 12 -68.445312 12.207031 -69.203125 12.625 -69.609375 C 13.039062 -70.023438 13.800781 -70.234375 14.90625 -70.234375 L 19.875 -70.234375 C 21.988281 -70.234375 23.457031 -69.957031 24.28125 -69.40625 C 25.113281 -68.863281 26.265625 -67.71875 27.734375 -65.96875 Z M 30.078125 -45.265625 L 30.078125 -62.515625 C 34.953125 -68.679688 42.5 -71.765625 52.71875 -71.765625 C 54.09375 -71.765625 54.941406 -71.554688 55.265625 -71.140625 C 55.585938 -70.722656 55.65625 -70.007812 55.46875 -69 L 53.953125 -58.921875 C 53.773438 -57.816406 53.453125 -57.082031 52.984375 -56.71875 C 52.523438 -56.351562 51.742188 -56.171875 50.640625 -56.171875 C 46.410156 -56.171875 42.457031 -55.34375 38.78125 -53.6875 C 35.101562 -52.03125 32.203125 -49.222656 30.078125 -45.265625 Z M 30.078125 -45.265625 "/></g></g></g><g fill="#000000" fill-opacity="1"><g transform="translate(427.781186, 147.268974)"><g><path d="M 33.953125 -0.6875 L 0.6875 -67.34375 C 0.414062 -68.082031 0.4375 -68.75 0.75 -69.34375 C 1.070312 -69.9375 1.648438 -70.234375 2.484375 -70.234375 L 13.53125 -70.234375 C 14.539062 -70.234375 15.273438 -70.023438 15.734375 -69.609375 C 16.191406 -69.203125 16.695312 -68.445312 17.25 -67.34375 L 44.984375 -12.28125 L 39.1875 -0.6875 C 38.632812 0.226562 38.21875 0.914062 37.9375 1.375 C 37.664062 1.832031 37.300781 2.0625 36.84375 2.0625 L 36.4375 2.0625 C 35.882812 2.0625 35.46875 1.832031 35.1875 1.375 C 34.914062 0.914062 34.503906 0.226562 33.953125 -0.6875 Z M 46.375 -15.046875 L 38.21875 -31.328125 L 55.75 -67.34375 C 56.394531 -68.445312 56.96875 -69.203125 57.46875 -69.609375 C 57.976562 -70.023438 58.691406 -70.234375 59.609375 -70.234375 L 70.515625 -70.234375 C 71.523438 -70.234375 72.164062 -69.890625 72.4375 -69.203125 C 72.71875 -68.515625 72.675781 -67.894531 72.3125 -67.34375 Z M 46.375 -15.046875 "/></g></g></g><g fill="#000000" fill-opacity="1"><g transform="translate(500.915521, 147.268974)"><g><path d="M 66.515625 -16.96875 L 70.515625 -12 C 71.253906 -11.175781 71.664062 -10.507812 71.75 -10 C 71.84375 -9.5 71.570312 -8.878906 70.9375 -8.140625 C 67.71875 -5.015625 63.53125 -2.625 58.375 -0.96875 C 53.21875 0.6875 48.066406 1.515625 42.921875 1.515625 C 36.015625 1.515625 29.753906 -0.140625 24.140625 -3.453125 C 18.535156 -6.765625 14.097656 -11.179688 10.828125 -16.703125 C 7.566406 -22.222656 5.9375 -28.335938 5.9375 -35.046875 C 5.9375 -41.492188 7.476562 -47.453125 10.5625 -52.921875 C 13.644531 -58.398438 17.804688 -62.863281 23.046875 -66.3125 C 28.285156 -69.757812 34.171875 -71.578125 40.703125 -71.765625 L 40.703125 -58.78125 C 35.191406 -58.414062 30.707031 -56.070312 27.25 -51.75 C 23.800781 -47.425781 22.078125 -42 22.078125 -35.46875 L 22.078125 -34.5 C 22.078125 -30.269531 23.019531 -26.453125 24.90625 -23.046875 C 26.789062 -19.640625 29.34375 -16.945312 32.5625 -14.96875 C 35.78125 -12.988281 39.367188 -12 43.328125 -12 C 45.816406 -12 48.691406 -12.367188 51.953125 -13.109375 C 55.222656 -13.847656 58.648438 -15.226562 62.234375 -17.25 C 62.785156 -17.519531 63.242188 -17.75 63.609375 -17.9375 C 63.984375 -18.125 64.351562 -18.21875 64.71875 -18.21875 C 65.269531 -18.21875 65.867188 -17.800781 66.515625 -16.96875 Z M 76.59375 -32.984375 C 76.59375 -31.878906 76.429688 -31.097656 76.109375 -30.640625 C 75.785156 -30.179688 75.023438 -29.953125 73.828125 -29.953125 L 24.984375 -29.953125 C 24.242188 -33.441406 24.242188 -36.890625 24.984375 -40.296875 L 60.578125 -40.296875 C 60.304688 -43.054688 59.476562 -45.816406 58.09375 -48.578125 C 56.71875 -51.335938 54.8125 -53.679688 52.375 -55.609375 C 49.9375 -57.546875 46.832031 -58.601562 43.0625 -58.78125 L 43.0625 -71.765625 C 50.507812 -71.578125 56.71875 -69.664062 61.6875 -66.03125 C 66.65625 -62.394531 70.378906 -57.65625 72.859375 -51.8125 C 75.347656 -45.976562 76.59375 -39.703125 76.59375 -32.984375 Z M 76.59375 -32.984375 "/></g></g></g><g clip-path="url(#52b8887c68)"><path fill="#000000" d="M 96.066406 68.351562 C 75.890625 68.351562 59.828125 84.609375 59.828125 104.269531 C 59.828125 113.15625 63.113281 121.300781 68.578125 127.609375 L 55.449219 140.734375 C 51.386719 138.488281 46.125 139.074219 42.6875 142.511719 L 21.535156 163.710938 C 17.386719 167.859375 17.386719 174.644531 21.535156 178.796875 C 25.6875 182.949219 32.472656 182.996094 36.625 178.84375 L 57.820312 157.648438 C 61.257812 154.210938 61.855469 148.910156 59.597656 144.839844 L 72.726562 131.710938 C 79.015625 136.96875 87.132812 140.1875 96.066406 140.1875 C 116.238281 140.1875 132.347656 123.929688 132.347656 104.269531 C 132.347656 84.609375 116.238281 68.351562 96.066406 68.351562 Z M 96.066406 73.867188 C 112.53125 73.867188 126.195312 87.289062 126.195312 104.269531 C 126.195312 121.25 112.53125 134.671875 96.066406 134.671875 C 79.597656 134.671875 66.027344 121.25 66.027344 104.269531 C 66.027344 87.289062 79.597656 73.867188 96.066406 73.867188 Z M 94.289062 80.429688 C 94.273438 80.445312 94.257812 80.460938 94.242188 80.476562 C 84.773438 80.808594 76.570312 86.785156 73.363281 95.335938 C 73.203125 95.691406 73.128906 96.058594 73.136719 96.441406 C 73.148438 96.824219 73.242188 97.1875 73.421875 97.535156 C 73.601562 97.882812 73.847656 98.183594 74.167969 98.4375 C 74.484375 98.695312 74.84375 98.882812 75.25 99 C 75.65625 99.121094 76.070312 99.164062 76.492188 99.128906 C 76.917969 99.09375 77.316406 98.988281 77.691406 98.804688 C 78.066406 98.621094 78.382812 98.378906 78.648438 98.074219 C 78.910156 97.773438 79.09375 97.4375 79.199219 97.066406 C 81.679688 90.453125 87.75 86.179688 94.46875 85.945312 C 94.894531 85.957031 95.304688 85.894531 95.699219 85.753906 C 96.09375 85.613281 96.441406 85.40625 96.742188 85.136719 C 97.042969 84.871094 97.269531 84.558594 97.425781 84.203125 C 97.582031 83.847656 97.65625 83.480469 97.644531 83.101562 C 97.628906 82.71875 97.535156 82.355469 97.355469 82.011719 C 97.175781 81.667969 96.925781 81.367188 96.609375 81.113281 C 96.289062 80.863281 95.929688 80.675781 95.527344 80.558594 C 95.125 80.4375 94.710938 80.394531 94.289062 80.429688 Z M 50.253906 145.203125 C 51.484375 145.195312 52.703125 145.648438 53.671875 146.617188 C 55.609375 148.554688 55.609375 151.605469 53.671875 153.542969 L 32.523438 174.695312 C 30.585938 176.632812 27.578125 176.585938 25.640625 174.648438 C 23.703125 172.710938 23.703125 169.796875 25.640625 167.859375 L 46.835938 146.660156 C 47.804688 145.691406 49.023438 145.210938 50.253906 145.203125 Z M 50.253906 145.203125 " fill-opacity="1" fill-rule="nonzero"/></g><g fill="#000000" fill-opacity="1"><g transform="translate(200.573326, 181.75033)"><g><path d="M 9.046875 -2.5625 C 9.046875 -2 8.898438 -1.53125 8.609375 -1.15625 C 8.316406 -0.78125 7.925781 -0.492188 7.4375 -0.296875 C 6.945312 -0.0976562 6.414062 0 5.84375 0 L 1.03125 0 L 1.03125 -9.9375 L 6.359375 -9.9375 C 6.828125 -9.9375 7.226562 -9.8125 7.5625 -9.5625 C 7.90625 -9.320312 8.164062 -9.003906 8.34375 -8.609375 C 8.53125 -8.222656 8.625 -7.820312 8.625 -7.40625 C 8.625 -6.925781 8.5 -6.472656 8.25 -6.046875 C 8.007812 -5.617188 7.660156 -5.300781 7.203125 -5.09375 C 7.765625 -4.925781 8.210938 -4.625 8.546875 -4.1875 C 8.878906 -3.75 9.046875 -3.207031 9.046875 -2.5625 Z M 7.09375 -2.921875 C 7.09375 -3.171875 7.039062 -3.394531 6.9375 -3.59375 C 6.84375 -3.800781 6.707031 -3.960938 6.53125 -4.078125 C 6.351562 -4.191406 6.15625 -4.25 5.9375 -4.25 L 2.96875 -4.25 L 2.96875 -1.640625 L 5.84375 -1.640625 C 6.070312 -1.640625 6.28125 -1.695312 6.46875 -1.8125 C 6.664062 -1.925781 6.816406 -2.082031 6.921875 -2.28125 C 7.035156 -2.476562 7.09375 -2.691406 7.09375 -2.921875 Z M 2.96875 -8.28125 L 2.96875 -5.78125 L 5.546875 -5.78125 C 5.753906 -5.78125 5.945312 -5.832031 6.125 -5.9375 C 6.300781 -6.039062 6.441406 -6.1875 6.546875 -6.375 C 6.660156 -6.5625 6.71875 -6.785156 6.71875 -7.046875 C 6.71875 -7.296875 6.664062 -7.515625 6.5625 -7.703125 C 6.46875 -7.890625 6.335938 -8.03125 6.171875 -8.125 C 6.015625 -8.226562 5.832031 -8.28125 5.625 -8.28125 Z M 2.96875 -8.28125 "/></g></g></g><g fill="#000000" fill-opacity="1"><g transform="translate(214.59602, 181.75033)"><g><path d="M 2.15625 -9.9375 L 4.609375 -5.265625 L 7.09375 -9.9375 L 9.1875 -9.9375 L 5.578125 -3.46875 L 5.578125 0 L 3.65625 0 L 3.65625 -3.5 L 0.0625 -9.9375 Z M 2.15625 -9.9375 "/></g></g></g><g fill="#000000" fill-opacity="1"><g transform="translate(228.338872, 181.75033)"><g/></g></g><g fill="#000000" fill-opacity="1"><g transform="translate(236.205011, 181.75033)"><g><path d="M 0.4375 -5.046875 C 0.4375 -5.648438 0.546875 -6.242188 0.765625 -6.828125 C 0.984375 -7.410156 1.300781 -7.941406 1.71875 -8.421875 C 2.144531 -8.898438 2.660156 -9.28125 3.265625 -9.5625 C 3.867188 -9.851562 4.554688 -10 5.328125 -10 C 6.242188 -10 7.035156 -9.796875 7.703125 -9.390625 C 8.367188 -8.992188 8.867188 -8.472656 9.203125 -7.828125 L 7.71875 -6.796875 C 7.550781 -7.171875 7.332031 -7.46875 7.0625 -7.6875 C 6.789062 -7.90625 6.5 -8.054688 6.1875 -8.140625 C 5.875 -8.234375 5.570312 -8.28125 5.28125 -8.28125 C 4.789062 -8.28125 4.363281 -8.179688 4 -7.984375 C 3.644531 -7.796875 3.347656 -7.539062 3.109375 -7.21875 C 2.867188 -6.90625 2.6875 -6.550781 2.5625 -6.15625 C 2.445312 -5.769531 2.390625 -5.378906 2.390625 -4.984375 C 2.390625 -4.546875 2.457031 -4.125 2.59375 -3.71875 C 2.738281 -3.3125 2.9375 -2.953125 3.1875 -2.640625 C 3.445312 -2.328125 3.753906 -2.078125 4.109375 -1.890625 C 4.472656 -1.710938 4.875 -1.625 5.3125 -1.625 C 5.613281 -1.625 5.921875 -1.675781 6.234375 -1.78125 C 6.554688 -1.882812 6.851562 -2.046875 7.125 -2.265625 C 7.394531 -2.492188 7.601562 -2.785156 7.75 -3.140625 L 9.34375 -2.21875 C 9.144531 -1.726562 8.820312 -1.3125 8.375 -0.96875 C 7.9375 -0.625 7.441406 -0.363281 6.890625 -0.1875 C 6.335938 -0.0078125 5.789062 0.078125 5.25 0.078125 C 4.539062 0.078125 3.890625 -0.0664062 3.296875 -0.359375 C 2.710938 -0.648438 2.207031 -1.039062 1.78125 -1.53125 C 1.351562 -2.019531 1.019531 -2.570312 0.78125 -3.1875 C 0.550781 -3.800781 0.4375 -4.421875 0.4375 -5.046875 Z M 0.4375 -5.046875 "/></g></g></g><g fill="#000000" fill-opacity="1"><g transform="translate(250.311659, 181.75033)"><g><path d="M 5.25 0.0625 C 4.457031 0.0625 3.78125 -0.0664062 3.21875 -0.328125 C 2.664062 -0.597656 2.21875 -0.960938 1.875 -1.421875 C 1.539062 -1.890625 1.289062 -2.421875 1.125 -3.015625 C 0.96875 -3.609375 0.890625 -4.226562 0.890625 -4.875 L 0.890625 -9.9375 L 2.828125 -9.9375 L 2.828125 -4.875 C 2.828125 -4.457031 2.863281 -4.054688 2.9375 -3.671875 C 3.019531 -3.285156 3.15625 -2.9375 3.34375 -2.625 C 3.53125 -2.320312 3.773438 -2.082031 4.078125 -1.90625 C 4.390625 -1.726562 4.773438 -1.640625 5.234375 -1.640625 C 5.703125 -1.640625 6.09375 -1.726562 6.40625 -1.90625 C 6.71875 -2.09375 6.960938 -2.335938 7.140625 -2.640625 C 7.328125 -2.953125 7.460938 -3.300781 7.546875 -3.6875 C 7.628906 -4.070312 7.671875 -4.46875 7.671875 -4.875 L 7.671875 -9.9375 L 9.59375 -9.9375 L 9.59375 -4.875 C 9.59375 -4.1875 9.507812 -3.546875 9.34375 -2.953125 C 9.175781 -2.359375 8.914062 -1.832031 8.5625 -1.375 C 8.21875 -0.925781 7.769531 -0.570312 7.21875 -0.3125 C 6.664062 -0.0625 6.007812 0.0625 5.25 0.0625 Z M 5.25 0.0625 "/></g></g></g><g fill="#000000" fill-opacity="1"><g transform="translate(265.31381, 181.75033)"><g><path d="M 1.03125 0 L 1.03125 -9.9375 L 2.96875 -9.9375 L 2.96875 -1.6875 L 8.03125 -1.6875 L 8.03125 0 Z M 1.03125 0 "/></g></g></g><g fill="#000000" fill-opacity="1"><g transform="translate(277.993257, 181.75033)"><g><path d="M 8.46875 -8.25 L 5.296875 -8.25 L 5.296875 0 L 3.375 0 L 3.375 -8.25 L 0.203125 -8.25 L 0.203125 -9.9375 L 8.46875 -9.9375 Z M 8.46875 -8.25 "/></g></g></g><g fill="#000000" fill-opacity="1"><g transform="translate(291.162431, 181.75033)"><g><path d="M 5.25 0.0625 C 4.457031 0.0625 3.78125 -0.0664062 3.21875 -0.328125 C 2.664062 -0.597656 2.21875 -0.960938 1.875 -1.421875 C 1.539062 -1.890625 1.289062 -2.421875 1.125 -3.015625 C 0.96875 -3.609375 0.890625 -4.226562 0.890625 -4.875 L 0.890625 -9.9375 L 2.828125 -9.9375 L 2.828125 -4.875 C 2.828125 -4.457031 2.863281 -4.054688 2.9375 -3.671875 C 3.019531 -3.285156 3.15625 -2.9375 3.34375 -2.625 C 3.53125 -2.320312 3.773438 -2.082031 4.078125 -1.90625 C 4.390625 -1.726562 4.773438 -1.640625 5.234375 -1.640625 C 5.703125 -1.640625 6.09375 -1.726562 6.40625 -1.90625 C 6.71875 -2.09375 6.960938 -2.335938 7.140625 -2.640625 C 7.328125 -2.953125 7.460938 -3.300781 7.546875 -3.6875 C 7.628906 -4.070312 7.671875 -4.46875 7.671875 -4.875 L 7.671875 -9.9375 L 9.59375 -9.9375 L 9.59375 -4.875 C 9.59375 -4.1875 9.507812 -3.546875 9.34375 -2.953125 C 9.175781 -2.359375 8.914062 -1.832031 8.5625 -1.375 C 8.21875 -0.925781 7.769531 -0.570312 7.21875 -0.3125 C 6.664062 -0.0625 6.007812 0.0625 5.25 0.0625 Z M 5.25 0.0625 "/></g></g></g><g fill="#000000" fill-opacity="1"><g transform="translate(306.164582, 181.75033)"><g><path d="M 1.03125 0 L 1.03125 -9.9375 L 5.4375 -9.9375 C 5.894531 -9.9375 6.316406 -9.84375 6.703125 -9.65625 C 7.085938 -9.46875 7.421875 -9.210938 7.703125 -8.890625 C 7.992188 -8.578125 8.210938 -8.222656 8.359375 -7.828125 C 8.515625 -7.441406 8.59375 -7.046875 8.59375 -6.640625 C 8.59375 -6.210938 8.519531 -5.804688 8.375 -5.421875 C 8.226562 -5.035156 8.019531 -4.695312 7.75 -4.40625 C 7.476562 -4.113281 7.160156 -3.890625 6.796875 -3.734375 L 9.078125 0 L 6.9375 0 L 4.90625 -3.328125 L 2.96875 -3.328125 L 2.96875 0 Z M 2.96875 -5.03125 L 5.390625 -5.03125 C 5.628906 -5.03125 5.84375 -5.097656 6.03125 -5.234375 C 6.21875 -5.378906 6.367188 -5.570312 6.484375 -5.8125 C 6.597656 -6.0625 6.65625 -6.335938 6.65625 -6.640625 C 6.65625 -6.953125 6.585938 -7.226562 6.453125 -7.46875 C 6.328125 -7.707031 6.160156 -7.894531 5.953125 -8.03125 C 5.753906 -8.175781 5.539062 -8.25 5.3125 -8.25 L 2.96875 -8.25 Z M 2.96875 -5.03125 "/></g></g></g><g fill="#000000" fill-opacity="1"><g transform="translate(319.977394, 181.75033)"><g><path d="M 7.9375 -1.6875 L 7.9375 0 L 1.03125 0 L 1.03125 -9.9375 L 7.8125 -9.9375 L 7.8125 -8.25 L 2.96875 -8.25 L 2.96875 -5.859375 L 7.15625 -5.859375 L 7.15625 -4.28125 L 2.96875 -4.28125 L 2.96875 -1.6875 Z M 7.9375 -1.6875 "/></g></g></g><g fill="#000000" fill-opacity="1"><g transform="translate(332.894706, 181.75033)"><g><path d="M 9.390625 -9.9375 L 9.390625 0 L 7.46875 0 L 7.46875 -4.234375 L 2.96875 -4.234375 L 2.96875 0 L 1.03125 0 L 1.03125 -9.9375 L 2.96875 -9.9375 L 2.96875 -5.921875 L 7.46875 -5.921875 L 7.46875 -9.9375 Z M 9.390625 -9.9375 "/></g></g></g><g fill="#000000" fill-opacity="1"><g transform="translate(347.826899, 181.75033)"><g><path d="M 5.28125 0.0625 C 4.550781 0.0625 3.890625 -0.0703125 3.296875 -0.34375 C 2.703125 -0.625 2.191406 -1.003906 1.765625 -1.484375 C 1.347656 -1.972656 1.019531 -2.515625 0.78125 -3.109375 C 0.550781 -3.710938 0.4375 -4.332031 0.4375 -4.96875 C 0.4375 -5.632812 0.554688 -6.265625 0.796875 -6.859375 C 1.046875 -7.460938 1.390625 -8 1.828125 -8.46875 C 2.265625 -8.945312 2.773438 -9.320312 3.359375 -9.59375 C 3.953125 -9.875 4.601562 -10.015625 5.3125 -10.015625 C 6.03125 -10.015625 6.6875 -9.867188 7.28125 -9.578125 C 7.875 -9.285156 8.378906 -8.894531 8.796875 -8.40625 C 9.222656 -7.925781 9.550781 -7.382812 9.78125 -6.78125 C 10.019531 -6.1875 10.140625 -5.570312 10.140625 -4.9375 C 10.140625 -4.289062 10.015625 -3.664062 9.765625 -3.0625 C 9.523438 -2.457031 9.1875 -1.914062 8.75 -1.4375 C 8.320312 -0.96875 7.8125 -0.597656 7.21875 -0.328125 C 6.625 -0.0664062 5.976562 0.0625 5.28125 0.0625 Z M 2.390625 -4.96875 C 2.390625 -4.539062 2.453125 -4.125 2.578125 -3.71875 C 2.710938 -3.320312 2.90625 -2.96875 3.15625 -2.65625 C 3.40625 -2.34375 3.707031 -2.09375 4.0625 -1.90625 C 4.425781 -1.726562 4.835938 -1.640625 5.296875 -1.640625 C 5.753906 -1.640625 6.164062 -1.734375 6.53125 -1.921875 C 6.894531 -2.117188 7.195312 -2.375 7.4375 -2.6875 C 7.6875 -3.007812 7.875 -3.367188 8 -3.765625 C 8.125 -4.171875 8.1875 -4.570312 8.1875 -4.96875 C 8.1875 -5.394531 8.117188 -5.804688 7.984375 -6.203125 C 7.847656 -6.597656 7.65625 -6.953125 7.40625 -7.265625 C 7.164062 -7.578125 6.863281 -7.820312 6.5 -8 C 6.144531 -8.1875 5.742188 -8.28125 5.296875 -8.28125 C 4.816406 -8.28125 4.394531 -8.1875 4.03125 -8 C 3.675781 -7.8125 3.375 -7.554688 3.125 -7.234375 C 2.882812 -6.921875 2.703125 -6.566406 2.578125 -6.171875 C 2.453125 -5.785156 2.390625 -5.382812 2.390625 -4.96875 Z M 2.390625 -4.96875 "/></g></g></g><g fill="#000000" fill-opacity="1"><g transform="translate(362.913004, 181.75033)"><g><path d="M 5.25 0.0625 C 4.457031 0.0625 3.78125 -0.0664062 3.21875 -0.328125 C 2.664062 -0.597656 2.21875 -0.960938 1.875 -1.421875 C 1.539062 -1.890625 1.289062 -2.421875 1.125 -3.015625 C 0.96875 -3.609375 0.890625 -4.226562 0.890625 -4.875 L 0.890625 -9.9375 L 2.828125 -9.9375 L 2.828125 -4.875 C 2.828125 -4.457031 2.863281 -4.054688 2.9375 -3.671875 C 3.019531 -3.285156 3.15625 -2.9375 3.34375 -2.625 C 3.53125 -2.320312 3.773438 -2.082031 4.078125 -1.90625 C 4.390625 -1.726562 4.773438 -1.640625 5.234375 -1.640625 C 5.703125 -1.640625 6.09375 -1.726562 6.40625 -1.90625 C 6.71875 -2.09375 6.960938 -2.335938 7.140625 -2.640625 C 7.328125 -2.953125 7.460938 -3.300781 7.546875 -3.6875 C 7.628906 -4.070312 7.671875 -4.46875 7.671875 -4.875 L 7.671875 -9.9375 L 9.59375 -9.9375 L 9.59375 -4.875 C 9.59375 -4.1875 9.507812 -3.546875 9.34375 -2.953125 C 9.175781 -2.359375 8.914062 -1.832031 8.5625 -1.375 C 8.21875 -0.925781 7.769531 -0.570312 7.21875 -0.3125 C 6.664062 -0.0625 6.007812 0.0625 5.25 0.0625 Z M 5.25 0.0625 "/></g></g></g><g fill="#000000" fill-opacity="1"><g transform="translate(377.915155, 181.75033)"><g><path d="M 6.953125 -7.34375 C 6.890625 -7.40625 6.769531 -7.488281 6.59375 -7.59375 C 6.425781 -7.707031 6.21875 -7.816406 5.96875 -7.921875 C 5.71875 -8.023438 5.445312 -8.113281 5.15625 -8.1875 C 4.875 -8.269531 4.582031 -8.3125 4.28125 -8.3125 C 3.757812 -8.3125 3.363281 -8.210938 3.09375 -8.015625 C 2.832031 -7.828125 2.703125 -7.554688 2.703125 -7.203125 C 2.703125 -6.929688 2.785156 -6.710938 2.953125 -6.546875 C 3.117188 -6.390625 3.367188 -6.253906 3.703125 -6.140625 C 4.046875 -6.035156 4.46875 -5.914062 4.96875 -5.78125 C 5.625 -5.625 6.191406 -5.429688 6.671875 -5.203125 C 7.148438 -4.972656 7.515625 -4.671875 7.765625 -4.296875 C 8.023438 -3.929688 8.15625 -3.445312 8.15625 -2.84375 C 8.15625 -2.3125 8.054688 -1.851562 7.859375 -1.46875 C 7.671875 -1.09375 7.398438 -0.785156 7.046875 -0.546875 C 6.703125 -0.316406 6.3125 -0.148438 5.875 -0.046875 C 5.4375 0.0546875 4.972656 0.109375 4.484375 0.109375 C 3.984375 0.109375 3.484375 0.0546875 2.984375 -0.046875 C 2.492188 -0.148438 2.019531 -0.296875 1.5625 -0.484375 C 1.101562 -0.671875 0.6875 -0.898438 0.3125 -1.171875 L 1.15625 -2.84375 C 1.238281 -2.757812 1.390625 -2.648438 1.609375 -2.515625 C 1.828125 -2.378906 2.085938 -2.242188 2.390625 -2.109375 C 2.703125 -1.972656 3.039062 -1.859375 3.40625 -1.765625 C 3.769531 -1.671875 4.140625 -1.625 4.515625 -1.625 C 5.035156 -1.625 5.429688 -1.710938 5.703125 -1.890625 C 5.972656 -2.066406 6.109375 -2.316406 6.109375 -2.640625 C 6.109375 -2.941406 6 -3.175781 5.78125 -3.34375 C 5.5625 -3.507812 5.257812 -3.65625 4.875 -3.78125 C 4.5 -3.90625 4.050781 -4.046875 3.53125 -4.203125 C 2.90625 -4.378906 2.378906 -4.578125 1.953125 -4.796875 C 1.535156 -5.015625 1.222656 -5.289062 1.015625 -5.625 C 0.816406 -5.957031 0.71875 -6.378906 0.71875 -6.890625 C 0.71875 -7.566406 0.878906 -8.132812 1.203125 -8.59375 C 1.523438 -9.0625 1.957031 -9.414062 2.5 -9.65625 C 3.050781 -9.894531 3.664062 -10.015625 4.34375 -10.015625 C 4.8125 -10.015625 5.25 -9.960938 5.65625 -9.859375 C 6.070312 -9.753906 6.460938 -9.617188 6.828125 -9.453125 C 7.191406 -9.285156 7.519531 -9.101562 7.8125 -8.90625 Z M 6.953125 -7.34375 "/></g></g></g><g fill="#000000" fill-opacity="1"><g transform="translate(391.000374, 181.75033)"><g><path d="M 7.9375 -1.6875 L 7.9375 0 L 1.03125 0 L 1.03125 -9.9375 L 7.8125 -9.9375 L 7.8125 -8.25 L 2.96875 -8.25 L 2.96875 -5.859375 L 7.15625 -5.859375 L 7.15625 -4.28125 L 2.96875 -4.28125 L 2.96875 -1.6875 Z M 7.9375 -1.6875 "/></g></g></g></svg>